<?xml version="1.0" encoding="UTF-8"?>
<svg xmlns="http://www.w3.org/2000/svg" xmlns:xlink="http://www.w3.org/1999/xlink" width="20pt" height="20pt" viewBox="0 0 20 20" version="1.1">
<g id="surface1">
<path style=" stroke:none;fill-rule:nonzero;fill:rgb(60.784314%,82.352941%,100%);fill-opacity:1;" d="M 3.75 17.5 C 3.75 17.5 2.5 17.5 2.5 16.25 C 2.5 15 3.75 11.25 10 11.25 C 16.25 11.25 17.5 15 17.5 16.25 C 17.5 17.5 16.25 17.5 16.25 17.5 Z M 10 10 C 10.996094 10 11.949219 9.605469 12.652344 8.902344 C 13.355469 8.199219 13.75 7.246094 13.75 6.25 C 13.75 5.253906 13.355469 4.300781 12.652344 3.597656 C 11.949219 2.894531 10.996094 2.5 10 2.5 C 9.003906 2.5 8.050781 2.894531 7.347656 3.597656 C 6.644531 4.300781 6.25 5.253906 6.25 6.25 C 6.25 7.246094 6.644531 8.199219 7.347656 8.902344 C 8.050781 9.605469 9.003906 10 10 10 Z M 10 10 "/>
</g>
</svg>
