<svg width="25" height="25" viewBox="0 0 20 20" fill="none" xmlns="http://www.w3.org/2000/svg">
<path d="M8.475 4.16666C8.59949 4.16624 8.7225 4.19372 8.83498 4.24707C8.94747 4.30043 9.04656 4.37831 9.125 4.475L13.15 9.475C13.2726 9.62411 13.3396 9.81114 13.3396 10.0042C13.3396 10.1972 13.2726 10.3842 13.15 10.5333L8.98333 15.5333C8.84188 15.7035 8.63862 15.8105 8.41827 15.8308C8.19791 15.8512 7.97851 15.7831 7.80833 15.6417C7.63815 15.5002 7.53113 15.297 7.51081 15.0766C7.4905 14.8562 7.55855 14.6368 7.7 14.4667L11.425 10L7.825 5.53333C7.72309 5.41101 7.65836 5.26206 7.63846 5.1041C7.61856 4.94614 7.64433 4.78579 7.71271 4.64202C7.78109 4.49824 7.88922 4.37707 8.02431 4.29283C8.1594 4.20858 8.3158 4.1648 8.475 4.16666Z" fill="#0077D7"/>
</svg>
