<svg width="20" height="20" viewBox="0 0 25 25" fill="none" xmlns="http://www.w3.org/2000/svg">
<path d="M19.7917 11.4583H7.4375L11.2188 6.91667C11.3956 6.70394 11.4806 6.42969 11.4552 6.15425C11.4298 5.8788 11.2961 5.62473 11.0833 5.44792C10.8706 5.27111 10.5964 5.18604 10.3209 5.21144C10.0455 5.23683 9.7914 5.37061 9.61459 5.58334L4.40626 11.8333C4.37121 11.883 4.33988 11.9353 4.3125 11.9896C4.3125 12.0417 4.31251 12.0729 4.23959 12.125C4.19237 12.2444 4.16765 12.3716 4.16667 12.5C4.16765 12.6284 4.19237 12.7556 4.23959 12.875C4.23959 12.9271 4.23959 12.9583 4.3125 13.0104C4.33988 13.0647 4.37121 13.117 4.40626 13.1667L9.61459 19.4167C9.71253 19.5343 9.83517 19.6288 9.9738 19.6936C10.1124 19.7584 10.2636 19.7919 10.4167 19.7917C10.6601 19.7921 10.8959 19.7074 11.0833 19.5521C11.1888 19.4646 11.276 19.3572 11.3399 19.236C11.4038 19.1149 11.4432 18.9822 11.4558 18.8458C11.4684 18.7094 11.4539 18.5718 11.4132 18.441C11.3725 18.3101 11.3065 18.1886 11.2188 18.0833L7.4375 13.5417H19.7917C20.0679 13.5417 20.3329 13.4319 20.5282 13.2366C20.7236 13.0412 20.8333 12.7763 20.8333 12.5C20.8333 12.2237 20.7236 11.9588 20.5282 11.7634C20.3329 11.5681 20.0679 11.4583 19.7917 11.4583Z" fill="white"/>
</svg>
