<?xml version="1.0" encoding="utf-8"?>
<svg width="20px" height="20px" viewBox="0 0 20 20" version="1.1" xmlns:xlink="http://www.w3.org/1999/xlink" xmlns="http://www.w3.org/2000/svg">
  <defs>
    <path d="M0 0L20 0L20 20L0 20L0 0Z" id="path_1" />
    <clipPath id="mask_1">
      <use xlink:href="#path_1" />
    </clipPath>
  </defs>
  <g id="icons8_bookmark">
    <path d="M0 0L20 0L20 20L0 20L0 0Z" id="Background" fill="none" fill-rule="evenodd" stroke="none" />
    <g clip-path="url(#mask_1)">
      <path d="M1.33333 0C0.596667 0 0 0.596667 0 1.33333L0 12C0 12.7367 0.596667 13.3333 1.33333 13.3333L6.66667 13.3333C7.40333 13.3333 8 13.93 8 14.6667L8 1.33333C8 0.596667 7.40333 0 6.66667 0L1.33333 0L1.33333 0ZM10.6667 0C9.93 0 9.33333 0.596667 9.33333 1.33333L9.33333 14.6667C9.33333 13.93 9.93 13.3333 10.6667 13.3333L16 13.3333C16.7367 13.3333 17.3333 12.7367 17.3333 12L17.3333 1.33333C17.3333 0.596667 16.7367 0 16 0L10.6667 0L10.6667 0Z" transform="translate(1.3333321 3.333332)" id="Shape" fill="#9BD2FF" fill-rule="evenodd" stroke="none" />
    </g>
  </g>
</svg>