<svg width="20" height="20" viewBox="0 0 20 20" fill="none" xmlns="http://www.w3.org/2000/svg">
<path d="M10 7.5C8.645 7.5 7.5 8.645 7.5 10C7.5 11.355 8.645 12.5 10 12.5C11.355 12.5 12.5 11.355 12.5 10C12.5 8.645 11.355 7.5 10 7.5Z" fill="#0077D7"/>
<path d="M16.6666 4.16666H14.5116L12.2558 1.91083C12.1785 1.8333 12.0867 1.77181 11.9856 1.7299C11.8845 1.688 11.7761 1.66651 11.6666 1.66666H8.33329C8.22384 1.66651 8.11544 1.688 8.01432 1.7299C7.91321 1.77181 7.82138 1.8333 7.74413 1.91083L5.48829 4.16666H3.33329C2.41413 4.16666 1.66663 4.91416 1.66663 5.83333V15C1.66663 15.9192 2.41413 16.6667 3.33329 16.6667H16.6666C17.5858 16.6667 18.3333 15.9192 18.3333 15V5.83333C18.3333 4.91416 17.5858 4.16666 16.6666 4.16666ZM9.99996 14.1667C7.74163 14.1667 5.83329 12.2583 5.83329 10C5.83329 7.74166 7.74163 5.83333 9.99996 5.83333C12.2583 5.83333 14.1666 7.74166 14.1666 10C14.1666 12.2583 12.2583 14.1667 9.99996 14.1667Z" fill="#0077D7"/>
</svg>
