<svg width="20" height="20" viewBox="0 0 20 20" fill="none" xmlns="http://www.w3.org/2000/svg">
<path d="M19.99 6.72563L19.1512 11.5372C19.0478 12.0687 18.6243 12.3919 18.136 12.398H5.90833L5.66557 13.7664H17.3193C17.933 13.8131 18.3492 14.2478 18.3567 14.8038C18.3121 15.4161 17.8774 15.8335 17.3193 15.8411H4.42955C3.73243 15.7784 3.31675 15.2227 3.39218 14.6051L3.94397 11.6034L3.10525 3.17206L0.721532 2.42168C0.139015 2.19039 -0.0987351 1.66343 0.0373149 1.11946C0.263532 0.552543 0.805582 0.293526 1.33953 0.435243L4.3854 1.40639C4.79573 1.56021 5.03178 1.89609 5.09168 2.28926L5.26825 3.96669L19.085 5.51169C19.7198 5.64921 20.0645 6.15206 19.99 6.72563V6.72563ZM7.58787 18.0193C7.58787 18.8939 6.87887 19.6029 6.00423 19.6029C5.12962 19.6029 4.42062 18.8939 4.42062 18.0193C4.42062 17.1446 5.12963 16.4356 6.00423 16.4356C6.87885 16.4356 7.58787 17.1447 7.58787 18.0193ZM17.0421 18.0193C17.0421 18.8939 16.333 19.6029 15.4584 19.6029C14.5838 19.6029 13.8748 18.8939 13.8748 18.0193C13.8748 17.1446 14.5838 16.4356 15.4584 16.4356C16.333 16.4356 17.0421 17.1447 17.0421 18.0193Z" fill="white"/>
</svg>
