<?xml version="1.0" encoding="UTF-8"?>
<svg xmlns="http://www.w3.org/2000/svg" xmlns:xlink="http://www.w3.org/1999/xlink" width="20pt" height="20pt" viewBox="0 0 20 20" version="1.1">
<g id="surface1">
<path style=" stroke:none;fill-rule:nonzero;fill:rgb(0%,0%,0%);fill-opacity:1;" d="M 7.5 17.777344 C 8.265625 17.777344 8.890625 17.15625 8.890625 16.390625 C 8.890625 15.621094 8.265625 15 7.5 15 C 6.734375 15 6.109375 15.621094 6.109375 16.390625 C 6.109375 17.15625 6.734375 17.777344 7.5 17.777344 Z M 7.5 17.777344 "/>
<path style=" stroke:none;fill-rule:nonzero;fill:rgb(0%,0%,0%);fill-opacity:1;" d="M 14.722656 17.777344 C 15.488281 17.777344 16.109375 17.15625 16.109375 16.390625 C 16.109375 15.621094 15.488281 15 14.722656 15 C 13.957031 15 13.332031 15.621094 13.332031 16.390625 C 13.332031 17.15625 13.957031 17.777344 14.722656 17.777344 Z M 14.722656 17.777344 "/>
<path style=" stroke:none;fill-rule:nonzero;fill:rgb(0%,0%,0%);fill-opacity:1;" d="M 18.390625 3.550781 C 18.335938 3.484375 18.269531 3.429688 18.195312 3.390625 C 18.117188 3.351562 18.035156 3.332031 17.949219 3.332031 L 5.117188 3.332031 L 4.867188 2.539062 C 4.839844 2.453125 4.792969 2.375 4.726562 2.3125 C 4.664062 2.25 4.585938 2.203125 4.5 2.179688 L 2.222656 1.476562 C 2.152344 1.457031 2.078125 1.449219 2.003906 1.457031 C 1.933594 1.460938 1.863281 1.484375 1.796875 1.519531 C 1.667969 1.585938 1.570312 1.707031 1.523438 1.847656 C 1.480469 1.988281 1.496094 2.140625 1.566406 2.273438 C 1.632812 2.402344 1.753906 2.5 1.894531 2.542969 L 3.890625 3.15625 L 6.433594 11.195312 L 5.527344 11.9375 L 5.457031 12.011719 C 5.230469 12.269531 5.105469 12.597656 5.097656 12.941406 C 5.089844 13.285156 5.199219 13.621094 5.410156 13.890625 C 5.5625 14.074219 5.753906 14.21875 5.972656 14.316406 C 6.191406 14.414062 6.429688 14.457031 6.667969 14.445312 L 15.9375 14.445312 C 16.085938 14.445312 16.226562 14.386719 16.332031 14.28125 C 16.4375 14.175781 16.496094 14.035156 16.496094 13.890625 C 16.496094 13.742188 16.4375 13.601562 16.332031 13.496094 C 16.226562 13.390625 16.085938 13.332031 15.9375 13.332031 L 6.578125 13.332031 C 6.515625 13.332031 6.453125 13.3125 6.398438 13.277344 C 6.34375 13.246094 6.296875 13.199219 6.265625 13.144531 C 6.234375 13.085938 6.21875 13.023438 6.21875 12.960938 C 6.21875 12.894531 6.234375 12.832031 6.265625 12.777344 L 7.605469 11.667969 L 16.179688 11.667969 C 16.304688 11.671875 16.429688 11.628906 16.53125 11.554688 C 16.632812 11.476562 16.703125 11.367188 16.734375 11.246094 L 18.511719 4.023438 C 18.527344 3.9375 18.527344 3.855469 18.503906 3.773438 C 18.484375 3.691406 18.445312 3.613281 18.390625 3.550781 Z M 18.390625 3.550781 "/>
</g>
</svg>
