<?xml version="1.0" encoding="UTF-8"?>
<svg xmlns="http://www.w3.org/2000/svg" xmlns:xlink="http://www.w3.org/1999/xlink" width="20pt" height="20pt" viewBox="0 0 20 20" version="1.1">
<g id="surface1">
<path style=" stroke:none;fill-rule:nonzero;fill:rgb(60.784314%,82.352941%,100%);fill-opacity:1;" d="M 18.027344 5.539062 C 17.765625 4.933594 17.386719 4.382812 16.914062 3.921875 C 16.445312 3.457031 15.886719 3.089844 15.273438 2.839844 C 14.640625 2.574219 13.960938 2.441406 13.273438 2.441406 C 12.3125 2.441406 11.371094 2.707031 10.554688 3.203125 C 10.363281 3.324219 10.175781 3.453125 10 3.597656 C 9.824219 3.453125 9.636719 3.324219 9.445312 3.203125 C 8.628906 2.707031 7.6875 2.441406 6.722656 2.441406 C 6.03125 2.441406 5.359375 2.574219 4.722656 2.839844 C 4.109375 3.09375 3.558594 3.457031 3.082031 3.921875 C 2.609375 4.382812 2.234375 4.933594 1.972656 5.539062 C 1.699219 6.171875 1.5625 6.839844 1.5625 7.53125 C 1.5625 8.179688 1.695312 8.859375 1.957031 9.546875 C 2.179688 10.121094 2.496094 10.722656 2.902344 11.324219 C 3.542969 12.277344 4.421875 13.277344 5.515625 14.285156 C 7.328125 15.957031 9.121094 17.117188 9.199219 17.164062 L 9.660156 17.457031 C 9.867188 17.589844 10.132812 17.589844 10.335938 17.457031 L 10.796875 17.164062 C 10.875 17.113281 12.667969 15.957031 14.480469 14.285156 C 15.574219 13.277344 16.457031 12.277344 17.097656 11.324219 C 17.5 10.722656 17.820312 10.121094 18.039062 9.546875 C 18.300781 8.859375 18.433594 8.179688 18.433594 7.53125 C 18.4375 6.839844 18.296875 6.171875 18.027344 5.539062 Z M 18.027344 5.539062 "/>
</g>
</svg>
