<?xml version="1.0" encoding="UTF-8"?>
<svg xmlns="http://www.w3.org/2000/svg" xmlns:xlink="http://www.w3.org/1999/xlink" width="20pt" height="20pt" viewBox="0 0 20 20" version="1.1">
<g id="surface1">
<path style=" stroke:none;fill-rule:nonzero;fill:rgb(60.784314%,82.352941%,100%);fill-opacity:1;" d="M 18.121094 10.277344 L 10.621094 1.941406 C 10.304688 1.589844 9.695312 1.589844 9.382812 1.941406 L 1.878906 10.277344 C 1.773438 10.394531 1.703125 10.542969 1.675781 10.703125 C 1.652344 10.863281 1.671875 11.023438 1.738281 11.171875 C 1.871094 11.472656 2.171875 11.667969 2.5 11.667969 L 4.167969 11.667969 L 4.167969 17.5 C 4.167969 17.722656 4.253906 17.933594 4.410156 18.089844 C 4.566406 18.246094 4.777344 18.332031 5 18.332031 L 7.5 18.332031 C 7.722656 18.332031 7.933594 18.246094 8.089844 18.089844 C 8.246094 17.933594 8.332031 17.722656 8.332031 17.5 L 8.332031 14.167969 L 11.667969 14.167969 L 11.667969 17.5 C 11.667969 17.722656 11.753906 17.933594 11.910156 18.089844 C 12.066406 18.246094 12.277344 18.332031 12.5 18.332031 L 15 18.332031 C 15.222656 18.332031 15.433594 18.246094 15.589844 18.089844 C 15.746094 17.933594 15.832031 17.722656 15.832031 17.5 L 15.832031 11.667969 L 17.5 11.667969 C 17.660156 11.667969 17.820312 11.621094 17.953125 11.535156 C 18.089844 11.445312 18.199219 11.320312 18.261719 11.171875 C 18.328125 11.027344 18.351562 10.863281 18.324219 10.703125 C 18.300781 10.542969 18.226562 10.394531 18.121094 10.277344 Z M 18.121094 10.277344 "/>
</g>
</svg>
