<svg width="168" height="135" viewBox="0 0 168 135" fill="none" xmlns="http://www.w3.org/2000/svg">
<path d="M2.28516 126V100.406H11.25C14.3555 100.406 16.7109 101.004 18.3164 102.199C19.9219 103.383 20.7246 105.123 20.7246 107.42C20.7246 108.674 20.4023 109.781 19.7578 110.742C19.1133 111.691 18.2168 112.389 17.0684 112.834C18.3809 113.162 19.4121 113.824 20.1621 114.82C20.9238 115.816 21.3047 117.035 21.3047 118.477C21.3047 120.938 20.5195 122.801 18.9492 124.066C17.3789 125.332 15.1406 125.977 12.2344 126H2.28516ZM7.55859 114.855V121.764H12.0762C13.3184 121.764 14.2852 121.471 14.9766 120.885C15.6797 120.287 16.0312 119.467 16.0312 118.424C16.0312 116.08 14.8184 114.891 12.3926 114.855H7.55859ZM7.55859 111.129H11.4609C14.1211 111.082 15.4512 110.021 15.4512 107.947C15.4512 106.787 15.1113 105.955 14.4316 105.451C13.7637 104.936 12.7031 104.678 11.25 104.678H7.55859V111.129ZM24.1523 116.314C24.1523 114.428 24.5156 112.746 25.2422 111.27C25.9688 109.793 27.0117 108.65 28.3711 107.842C29.7422 107.033 31.3301 106.629 33.1348 106.629C35.7012 106.629 37.793 107.414 39.4102 108.984C41.0391 110.555 41.9473 112.688 42.1348 115.383L42.1699 116.684C42.1699 119.602 41.3555 121.945 39.7266 123.715C38.0977 125.473 35.9121 126.352 33.1699 126.352C30.4277 126.352 28.2363 125.473 26.5957 123.715C24.9668 121.957 24.1523 119.566 24.1523 116.543V116.314ZM29.2324 116.684C29.2324 118.488 29.5723 119.871 30.252 120.832C30.9316 121.781 31.9043 122.256 33.1699 122.256C34.4004 122.256 35.3613 121.787 36.0527 120.85C36.7441 119.9 37.0898 118.389 37.0898 116.314C37.0898 114.545 36.7441 113.174 36.0527 112.201C35.3613 111.229 34.3887 110.742 33.1348 110.742C31.8926 110.742 30.9316 111.229 30.252 112.201C29.5723 113.162 29.2324 114.656 29.2324 116.684ZM44.5078 116.314C44.5078 114.428 44.8711 112.746 45.5977 111.27C46.3242 109.793 47.3672 108.65 48.7266 107.842C50.0977 107.033 51.6855 106.629 53.4902 106.629C56.0566 106.629 58.1484 107.414 59.7656 108.984C61.3945 110.555 62.3027 112.688 62.4902 115.383L62.5254 116.684C62.5254 119.602 61.7109 121.945 60.082 123.715C58.4531 125.473 56.2676 126.352 53.5254 126.352C50.7832 126.352 48.5918 125.473 46.9512 123.715C45.3223 121.957 44.5078 119.566 44.5078 116.543V116.314ZM49.5879 116.684C49.5879 118.488 49.9277 119.871 50.6074 120.832C51.2871 121.781 52.2598 122.256 53.5254 122.256C54.7559 122.256 55.7168 121.787 56.4082 120.85C57.0996 119.9 57.4453 118.389 57.4453 116.314C57.4453 114.545 57.0996 113.174 56.4082 112.201C55.7168 111.229 54.7441 110.742 53.4902 110.742C52.248 110.742 51.2871 111.229 50.6074 112.201C49.9277 113.162 49.5879 114.656 49.5879 116.684ZM72.5625 118.371L70.7344 120.199V126H65.6543V99H70.7344V113.959L71.7188 112.693L76.5879 106.98H82.6875L75.8145 114.908L83.2852 126H77.4492L72.5625 118.371ZM93.4453 114.592C90.5508 113.76 88.4414 112.74 87.1172 111.533C85.8047 110.314 85.1484 108.814 85.1484 107.033C85.1484 105.018 85.9512 103.354 87.5566 102.041C89.1738 100.717 91.2715 100.055 93.8496 100.055C95.6074 100.055 97.1719 100.395 98.543 101.074C99.9258 101.754 100.992 102.691 101.742 103.887C102.504 105.082 102.885 106.389 102.885 107.807H99.4922C99.4922 106.26 99 105.047 98.0156 104.168C97.0312 103.277 95.6426 102.832 93.8496 102.832C92.1855 102.832 90.8848 103.201 89.9473 103.939C89.0215 104.666 88.5586 105.68 88.5586 106.98C88.5586 108.023 88.998 108.908 89.877 109.635C90.7676 110.35 92.2734 111.006 94.3945 111.604C96.5273 112.201 98.1914 112.863 99.3867 113.59C100.594 114.305 101.484 115.143 102.059 116.104C102.645 117.064 102.938 118.195 102.938 119.496C102.938 121.57 102.129 123.234 100.512 124.488C98.8945 125.73 96.7324 126.352 94.0254 126.352C92.2676 126.352 90.627 126.018 89.1035 125.35C87.5801 124.67 86.4023 123.744 85.5703 122.572C84.75 121.4 84.3398 120.07 84.3398 118.582H87.7324C87.7324 120.129 88.3008 121.354 89.4375 122.256C90.5859 123.146 92.1152 123.592 94.0254 123.592C95.8066 123.592 97.1719 123.229 98.1211 122.502C99.0703 121.775 99.5449 120.785 99.5449 119.531C99.5449 118.277 99.1055 117.311 98.2266 116.631C97.3477 115.939 95.7539 115.26 93.4453 114.592ZM111.182 102.375V106.98H114.732V109.494H111.182V121.289C111.182 122.051 111.34 122.625 111.656 123.012C111.973 123.387 112.512 123.574 113.273 123.574C113.648 123.574 114.164 123.504 114.82 123.363V126C113.965 126.234 113.133 126.352 112.324 126.352C110.871 126.352 109.775 125.912 109.037 125.033C108.299 124.154 107.93 122.906 107.93 121.289V109.494H104.467V106.98H107.93V102.375H111.182ZM117.334 116.314C117.334 114.451 117.697 112.775 118.424 111.287C119.162 109.799 120.182 108.65 121.482 107.842C122.795 107.033 124.289 106.629 125.965 106.629C128.555 106.629 130.646 107.525 132.24 109.318C133.846 111.111 134.648 113.496 134.648 116.473V116.701C134.648 118.553 134.291 120.217 133.576 121.693C132.873 123.158 131.859 124.301 130.535 125.121C129.223 125.941 127.711 126.352 126 126.352C123.422 126.352 121.33 125.455 119.725 123.662C118.131 121.869 117.334 119.496 117.334 116.543V116.314ZM120.604 116.701C120.604 118.811 121.09 120.504 122.062 121.781C123.047 123.059 124.359 123.697 126 123.697C127.652 123.697 128.965 123.053 129.938 121.764C130.91 120.463 131.396 118.646 131.396 116.314C131.396 114.229 130.898 112.541 129.902 111.252C128.918 109.951 127.605 109.301 125.965 109.301C124.359 109.301 123.064 109.939 122.08 111.217C121.096 112.494 120.604 114.322 120.604 116.701ZM147.92 109.898C147.428 109.816 146.895 109.775 146.32 109.775C144.188 109.775 142.74 110.684 141.979 112.5V126H138.727V106.98H141.891L141.943 109.178C143.01 107.479 144.521 106.629 146.479 106.629C147.111 106.629 147.592 106.711 147.92 106.875V109.898ZM158.467 126.352C155.889 126.352 153.791 125.508 152.174 123.82C150.557 122.121 149.748 119.854 149.748 117.018V116.42C149.748 114.533 150.105 112.852 150.82 111.375C151.547 109.887 152.555 108.727 153.844 107.895C155.145 107.051 156.551 106.629 158.062 106.629C160.535 106.629 162.457 107.443 163.828 109.072C165.199 110.701 165.885 113.033 165.885 116.068V117.422H153C153.047 119.297 153.592 120.814 154.635 121.975C155.689 123.123 157.025 123.697 158.643 123.697C159.791 123.697 160.764 123.463 161.561 122.994C162.357 122.525 163.055 121.904 163.652 121.131L165.639 122.678C164.045 125.127 161.654 126.352 158.467 126.352ZM158.062 109.301C156.75 109.301 155.648 109.781 154.758 110.742C153.867 111.691 153.316 113.027 153.105 114.75H162.633V114.504C162.539 112.852 162.094 111.574 161.297 110.672C160.5 109.758 159.422 109.301 158.062 109.301Z" fill="#42A5F5"/>
<g clip-path="url(#clip0)">
<path d="M97.5625 14.0625C97.5625 6.2959 91.2666 0 83.5 0C75.7334 0 69.4375 6.2959 69.4375 14.0625C69.4375 21.8291 75.7334 28.125 83.5 28.125C91.2666 28.125 97.5625 21.8291 97.5625 14.0625ZM80.2173 35.3174C71.5264 29.9971 57.4492 28.5352 50.3652 28.1323C47.9849 27.9976 46 29.811 46 32.1006V64.7373C46 66.8364 47.6978 68.5869 49.8804 68.6997C56.2759 69.0352 69.2148 70.2642 78.1577 74.7686C79.5303 75.46 81.1577 74.5181 81.1577 73.0298V36.9961C81.1562 36.312 80.8179 35.6851 80.2173 35.3174ZM116.635 28.1323C109.552 28.5337 95.4736 29.9971 86.7842 35.3174C86.1836 35.6851 85.8452 36.3369 85.8452 37.021V73.0254C85.8452 74.5181 87.4771 75.4614 88.854 74.7686C97.7954 70.2686 110.727 69.0396 117.121 68.7041C119.304 68.5898 121.001 66.8394 121.001 64.7402V32.1006C121 29.811 119.015 27.9976 116.635 28.1323Z" fill="#42A5F5"/>
</g>
<defs>
<clipPath id="clip0">
<rect width="75" height="75" fill="white" transform="translate(46)"/>
</clipPath>
</defs>
</svg>
