<svg width="112" height="91" viewBox="0 0 112 91" fill="none" xmlns="http://www.w3.org/2000/svg">
<path d="M1.52344 85V67.9375H7.5C9.57031 67.9375 11.1406 68.3359 12.2109 69.1328C13.2812 69.9219 13.8164 71.082 13.8164 72.6133C13.8164 73.4492 13.6016 74.1875 13.1719 74.8281C12.7422 75.4609 12.1445 75.9258 11.3789 76.2227C12.2539 76.4414 12.9414 76.8828 13.4414 77.5469C13.9492 78.2109 14.2031 79.0234 14.2031 79.9844C14.2031 81.625 13.6797 82.8672 12.6328 83.7109C11.5859 84.5547 10.0938 84.9844 8.15625 85H1.52344ZM5.03906 77.5703V82.1758H8.05078C8.87891 82.1758 9.52344 81.9805 9.98438 81.5898C10.4531 81.1914 10.6875 80.6445 10.6875 79.9492C10.6875 78.3867 9.87891 77.5938 8.26172 77.5703H5.03906ZM5.03906 75.0859H7.64062C9.41406 75.0547 10.3008 74.3477 10.3008 72.9648C10.3008 72.1914 10.0742 71.6367 9.62109 71.3008C9.17578 70.957 8.46875 70.7852 7.5 70.7852H5.03906V75.0859ZM16.1016 78.543C16.1016 77.2852 16.3438 76.1641 16.8281 75.1797C17.3125 74.1953 18.0078 73.4336 18.9141 72.8945C19.8281 72.3555 20.8867 72.0859 22.0898 72.0859C23.8008 72.0859 25.1953 72.6094 26.2734 73.6562C27.3594 74.7031 27.9648 76.125 28.0898 77.9219L28.1133 78.7891C28.1133 80.7344 27.5703 82.2969 26.4844 83.4766C25.3984 84.6484 23.9414 85.2344 22.1133 85.2344C20.2852 85.2344 18.8242 84.6484 17.7305 83.4766C16.6445 82.3047 16.1016 80.7109 16.1016 78.6953V78.543ZM19.4883 78.7891C19.4883 79.9922 19.7148 80.9141 20.168 81.5547C20.6211 82.1875 21.2695 82.5039 22.1133 82.5039C22.9336 82.5039 23.5742 82.1914 24.0352 81.5664C24.4961 80.9336 24.7266 79.9258 24.7266 78.543C24.7266 77.3633 24.4961 76.4492 24.0352 75.8008C23.5742 75.1523 22.9258 74.8281 22.0898 74.8281C21.2617 74.8281 20.6211 75.1523 20.168 75.8008C19.7148 76.4414 19.4883 77.4375 19.4883 78.7891ZM29.6719 78.543C29.6719 77.2852 29.9141 76.1641 30.3984 75.1797C30.8828 74.1953 31.5781 73.4336 32.4844 72.8945C33.3984 72.3555 34.457 72.0859 35.6602 72.0859C37.3711 72.0859 38.7656 72.6094 39.8438 73.6562C40.9297 74.7031 41.5352 76.125 41.6602 77.9219L41.6836 78.7891C41.6836 80.7344 41.1406 82.2969 40.0547 83.4766C38.9688 84.6484 37.5117 85.2344 35.6836 85.2344C33.8555 85.2344 32.3945 84.6484 31.3008 83.4766C30.2148 82.3047 29.6719 80.7109 29.6719 78.6953V78.543ZM33.0586 78.7891C33.0586 79.9922 33.2852 80.9141 33.7383 81.5547C34.1914 82.1875 34.8398 82.5039 35.6836 82.5039C36.5039 82.5039 37.1445 82.1914 37.6055 81.5664C38.0664 80.9336 38.2969 79.9258 38.2969 78.543C38.2969 77.3633 38.0664 76.4492 37.6055 75.8008C37.1445 75.1523 36.4961 74.8281 35.6602 74.8281C34.832 74.8281 34.1914 75.1523 33.7383 75.8008C33.2852 76.4414 33.0586 77.4375 33.0586 78.7891ZM48.375 79.9141L47.1562 81.1328V85H43.7695V67H47.1562V76.9727L47.8125 76.1289L51.0586 72.3203H55.125L50.543 77.6055L55.5234 85H51.6328L48.375 79.9141ZM62.2969 77.3945C60.3672 76.8398 58.9609 76.1602 58.0781 75.3555C57.2031 74.543 56.7656 73.543 56.7656 72.3555C56.7656 71.0117 57.3008 69.9023 58.3711 69.0273C59.4492 68.1445 60.8477 67.7031 62.5664 67.7031C63.7383 67.7031 64.7812 67.9297 65.6953 68.3828C66.6172 68.8359 67.3281 69.4609 67.8281 70.2578C68.3359 71.0547 68.5898 71.9258 68.5898 72.8711H66.3281C66.3281 71.8398 66 71.0312 65.3438 70.4453C64.6875 69.8516 63.7617 69.5547 62.5664 69.5547C61.457 69.5547 60.5898 69.8008 59.9648 70.293C59.3477 70.7773 59.0391 71.4531 59.0391 72.3203C59.0391 73.0156 59.332 73.6055 59.918 74.0898C60.5117 74.5664 61.5156 75.0039 62.9297 75.4023C64.3516 75.8008 65.4609 76.2422 66.2578 76.7266C67.0625 77.2031 67.6562 77.7617 68.0391 78.4023C68.4297 79.043 68.625 79.7969 68.625 80.6641C68.625 82.0469 68.0859 83.1562 67.0078 83.9922C65.9297 84.8203 64.4883 85.2344 62.6836 85.2344C61.5117 85.2344 60.418 85.0117 59.4023 84.5664C58.3867 84.1133 57.6016 83.4961 57.0469 82.7148C56.5 81.9336 56.2266 81.0469 56.2266 80.0547H58.4883C58.4883 81.0859 58.8672 81.9023 59.625 82.5039C60.3906 83.0977 61.4102 83.3945 62.6836 83.3945C63.8711 83.3945 64.7812 83.1523 65.4141 82.668C66.0469 82.1836 66.3633 81.5234 66.3633 80.6875C66.3633 79.8516 66.0703 79.207 65.4844 78.7539C64.8984 78.293 63.8359 77.8398 62.2969 77.3945ZM74.1211 69.25V72.3203H76.4883V73.9961H74.1211V81.8594C74.1211 82.3672 74.2266 82.75 74.4375 83.0078C74.6484 83.2578 75.0078 83.3828 75.5156 83.3828C75.7656 83.3828 76.1094 83.3359 76.5469 83.2422V85C75.9766 85.1562 75.4219 85.2344 74.8828 85.2344C73.9141 85.2344 73.1836 84.9414 72.6914 84.3555C72.1992 83.7695 71.9531 82.9375 71.9531 81.8594V73.9961H69.6445V72.3203H71.9531V69.25H74.1211ZM78.2227 78.543C78.2227 77.3008 78.4648 76.1836 78.9492 75.1914C79.4414 74.1992 80.1211 73.4336 80.9883 72.8945C81.8633 72.3555 82.8594 72.0859 83.9766 72.0859C85.7031 72.0859 87.0977 72.6836 88.1602 73.8789C89.2305 75.0742 89.7656 76.6641 89.7656 78.6484V78.8008C89.7656 80.0352 89.5273 81.1445 89.0508 82.1289C88.582 83.1055 87.9062 83.8672 87.0234 84.4141C86.1484 84.9609 85.1406 85.2344 84 85.2344C82.2812 85.2344 80.8867 84.6367 79.8164 83.4414C78.7539 82.2461 78.2227 80.6641 78.2227 78.6953V78.543ZM80.4023 78.8008C80.4023 80.207 80.7266 81.3359 81.375 82.1875C82.0312 83.0391 82.9062 83.4648 84 83.4648C85.1016 83.4648 85.9766 83.0352 86.625 82.1758C87.2734 81.3086 87.5977 80.0977 87.5977 78.543C87.5977 77.1523 87.2656 76.0273 86.6016 75.168C85.9453 74.3008 85.0703 73.8672 83.9766 73.8672C82.9062 73.8672 82.043 74.293 81.3867 75.1445C80.7305 75.9961 80.4023 77.2148 80.4023 78.8008ZM98.6133 74.2656C98.2852 74.2109 97.9297 74.1836 97.5469 74.1836C96.125 74.1836 95.1602 74.7891 94.6523 76V85H92.4844V72.3203H94.5938L94.6289 73.7852C95.3398 72.6523 96.3477 72.0859 97.6523 72.0859C98.0742 72.0859 98.3945 72.1406 98.6133 72.25V74.2656ZM105.645 85.2344C103.926 85.2344 102.527 84.6719 101.449 83.5469C100.371 82.4141 99.832 80.9023 99.832 79.0117V78.6133C99.832 77.3555 100.07 76.2344 100.547 75.25C101.031 74.2578 101.703 73.4844 102.562 72.9297C103.43 72.3672 104.367 72.0859 105.375 72.0859C107.023 72.0859 108.305 72.6289 109.219 73.7148C110.133 74.8008 110.59 76.3555 110.59 78.3789V79.2812H102C102.031 80.5312 102.395 81.543 103.09 82.3164C103.793 83.082 104.684 83.4648 105.762 83.4648C106.527 83.4648 107.176 83.3086 107.707 82.9961C108.238 82.6836 108.703 82.2695 109.102 81.7539L110.426 82.7852C109.363 84.418 107.77 85.2344 105.645 85.2344ZM105.375 73.8672C104.5 73.8672 103.766 74.1875 103.172 74.8281C102.578 75.4609 102.211 76.3516 102.07 77.5H108.422V77.3359C108.359 76.2344 108.062 75.3828 107.531 74.7812C107 74.1719 106.281 73.8672 105.375 73.8672Z" fill="#42A5F5"/>
<g clip-path="url(#clip0)">
<path d="M67.25 11.25C67.25 5.03672 62.2133 0 56 0C49.7867 0 44.75 5.03672 44.75 11.25C44.75 17.4633 49.7867 22.5 56 22.5C62.2133 22.5 67.25 17.4633 67.25 11.25ZM53.3738 28.2539C46.4211 23.9977 35.1594 22.8281 29.4922 22.5059C27.5879 22.398 26 23.8488 26 25.6805V51.7898C26 53.4691 27.3582 54.8695 29.1043 54.9598C34.2207 55.2281 44.5719 56.2113 51.7262 59.8148C52.8242 60.368 54.1262 59.6145 54.1262 58.4238V29.5969C54.125 29.0496 53.8543 28.548 53.3738 28.2539ZM82.5078 22.5059C76.8418 22.827 65.5789 23.9977 58.6273 28.2539C58.1469 28.548 57.8762 29.0695 57.8762 29.6168V58.4203C57.8762 59.6145 59.1816 60.3691 60.2832 59.8148C67.4363 56.2148 77.7816 55.2316 82.8969 54.9633C84.643 54.8719 86.0012 53.4715 86.0012 51.7922V25.6805C86 23.8488 84.4121 22.398 82.5078 22.5059V22.5059Z" fill="#42A5F5"/>
</g>
<defs>
<clipPath id="clip0">
<rect width="60" height="60" fill="white" transform="translate(26)"/>
</clipPath>
</defs>
</svg>
