<svg width="25" height="25" viewBox="0 0 20 20" fill="none" xmlns="http://www.w3.org/2000/svg">
<path d="M14.1667 1.66666H5.83333C4.41666 1.66666 3.33333 2.75 3.33333 4.16666V9.16666H10.5L8.58333 7.25C8.24999 6.91666 8.24999 6.41666 8.58333 6.08333C8.91666 5.75 9.41666 5.75 9.74999 6.08333L13.0833 9.41666C13.4167 9.75 13.4167 10.25 13.0833 10.5833L9.74999 13.9167C9.41666 14.25 8.91666 14.25 8.58333 13.9167C8.24999 13.5833 8.24999 13.0833 8.58333 12.75L10.5 10.8333H3.33333V15.8333C3.33333 17.25 4.41666 18.3333 5.83333 18.3333H14.1667C15.5833 18.3333 16.6667 17.25 16.6667 15.8333V4.16666C16.6667 2.75 15.5833 1.66666 14.1667 1.66666Z" fill="#0077D7"/>
</svg>
