<svg width="25" height="25" viewBox="0 0 25 25" fill="none" xmlns="http://www.w3.org/2000/svg">
<path d="M10.4167 4.16667C9.31159 4.16667 8.25178 4.60565 7.47038 5.38706C6.68898 6.16846 6.24999 7.22827 6.24999 8.33333C6.24999 9.4384 6.68898 10.4982 7.47038 11.2796C8.25178 12.061 9.31159 12.5 10.4167 12.5C11.5217 12.5 12.5815 12.061 13.3629 11.2796C14.1443 10.4982 14.5833 9.4384 14.5833 8.33333C14.5833 7.22827 14.1443 6.16846 13.3629 5.38706C12.5815 4.60565 11.5217 4.16667 10.4167 4.16667ZM17.7083 12.5C17.6447 12.4988 17.5826 12.5201 17.5331 12.5601C17.4836 12.6001 17.4497 12.6563 17.4375 12.7188L17.2396 14.0938C16.9271 14.2292 16.625 14.3958 16.3542 14.5833L15.0625 14.0625C14.9479 14.0625 14.8125 14.0625 14.7396 14.1979L13.6979 16C13.6354 16.1146 13.6562 16.25 13.7604 16.3333L14.8646 17.1875C14.823 17.5335 14.823 17.8832 14.8646 18.2292L13.7604 19.0833C13.7136 19.1235 13.6819 19.1784 13.6705 19.239C13.6592 19.2996 13.6688 19.3623 13.6979 19.4167L14.7396 21.2188C14.8021 21.3542 14.9375 21.3542 15.0625 21.3542L16.3542 20.8333C16.625 21.0208 16.9167 21.1979 17.2396 21.3229L17.4375 22.6979C17.4583 22.8229 17.5625 22.9167 17.7083 22.9167H19.7917C19.9062 22.9167 20.0208 22.8229 20.0417 22.6979L20.2396 21.3229C20.5521 21.1875 20.8333 21.0208 21.1146 20.8333L22.3958 21.3542C22.5312 21.3542 22.6667 21.3542 22.7396 21.2188L23.7812 19.4167C23.8103 19.3623 23.82 19.2996 23.8086 19.239C23.7973 19.1784 23.7656 19.1235 23.7187 19.0833L22.6042 18.2292C22.625 18.0521 22.6458 17.8854 22.6458 17.7083C22.6458 17.5313 22.6354 17.3646 22.6042 17.1875L23.7083 16.3333C23.7551 16.2932 23.7868 16.2383 23.7982 16.1777C23.8096 16.1171 23.7999 16.0544 23.7708 16L22.7292 14.1979C22.6667 14.0625 22.5312 14.0625 22.3958 14.0625L21.1146 14.5833C20.8333 14.3958 20.5521 14.2188 20.2292 14.0938L20.0312 12.7188C20.0247 12.6594 19.9967 12.6045 19.9527 12.5642C19.9086 12.524 19.8513 12.5012 19.7917 12.5H17.7083ZM10.4167 14.5833C5.81249 14.5833 2.08333 16.4479 2.08333 18.75V20.8333H12.1667C11.7018 19.8571 11.4598 18.7896 11.4583 17.7083C11.4604 16.6618 11.6878 15.628 12.125 14.6771C11.5729 14.6146 11 14.5833 10.4167 14.5833ZM18.75 16.1458C19.6146 16.1458 20.3125 16.8438 20.3125 17.7083C20.3125 18.5729 19.6146 19.2708 18.75 19.2708C17.875 19.2708 17.1875 18.5729 17.1875 17.7083C17.1875 16.8438 17.8854 16.1458 18.75 16.1458Z" fill="#0077D7"/>
</svg>
