<?xml version="1.0" encoding="UTF-8"?>
<svg xmlns="http://www.w3.org/2000/svg" xmlns:xlink="http://www.w3.org/1999/xlink" width="20pt" height="20pt" viewBox="0 0 20 20" version="1.1">
<g id="surface1">
<path style=" stroke:none;fill-rule:nonzero;fill:rgb(0%,0%,0%);fill-opacity:1;" d="M 9.199219 14.398438 C 6.320312 14.398438 4 12.078125 4 9.199219 C 4 6.320312 6.320312 4 9.199219 4 C 12.078125 4 14.398438 6.320312 14.398438 9.199219 C 14.398438 12.078125 12.078125 14.398438 9.199219 14.398438 Z M 9.199219 4.800781 C 6.761719 4.800781 4.800781 6.761719 4.800781 9.199219 C 4.800781 11.640625 6.761719 13.601562 9.199219 13.601562 C 11.640625 13.601562 13.601562 11.640625 13.601562 9.199219 C 13.601562 6.761719 11.640625 4.800781 9.199219 4.800781 Z M 9.199219 4.800781 "/>
<path style=" stroke:none;fill-rule:nonzero;fill:rgb(0%,0%,0%);fill-opacity:1;" d="M 13.074219 12.507812 L 16.664062 16.097656 L 16.097656 16.664062 L 12.507812 13.074219 Z M 13.074219 12.507812 "/>
</g>
</svg>
